<?xml version="1.0" standalone="no"?>
<!DOCTYPE svg PUBLIC "-//W3C//DTD SVG 20010904//EN"
 "http://www.w3.org/TR/2001/REC-SVG-20010904/DTD/svg10.dtd">
<svg version="1.0" xmlns="http://www.w3.org/2000/svg"
 width="700.000000pt" height="700.000000pt" viewBox="0 0 700.000000 700.000000"
 preserveAspectRatio="xMidYMid meet">
<metadata>
Created by potrace 1.14, written by Peter Selinger 2001-2017
</metadata>
<g transform="translate(0.000000,700.000000) scale(0.100000,-0.100000)"
fill="#000000" stroke="none">
<path d="M3330 6989 c-71 -12 -84 -14 -200 -43 -32 -8 -178 -69 -225 -94 -132
-70 -208 -133 -410 -338 l-171 -174 -244 2 c-252 2 -328 -2 -434 -27 -499
-116 -871 -501 -971 -1006 -14 -69 -19 -177 -18 -394 l1 -239 -176 -176 c-194
-192 -204 -203 -267 -297 -75 -111 -157 -297 -179 -403 -3 -14 -7 -36 -11 -50
-26 -118 -27 -365 -1 -490 37 -181 117 -364 221 -506 32 -44 138 -158 236
-254 l178 -175 -2 -240 c-1 -224 4 -335 19 -395 3 -14 9 -43 14 -66 19 -90 99
-284 153 -369 173 -275 449 -476 767 -561 119 -32 228 -40 484 -37 l228 2 187
-187 c137 -139 210 -204 279 -250 226 -150 437 -216 697 -216 205 -1 308 17
480 85 199 77 333 177 564 417 l144 150 251 -1 c286 -1 317 2 510 48 93 22
351 149 396 195 3 3 27 23 55 45 67 54 146 137 201 210 24 33 48 65 53 71 26
32 103 190 130 267 65 186 76 274 73 595 l-2 234 188 186 c230 229 301 327
382 528 26 64 56 164 66 219 31 172 27 375 -9 526 -36 148 -89 275 -166 399
-49 80 -124 164 -282 321 l-178 175 1 245 c1 134 -2 273 -5 308 -9 83 -52 247
-89 335 -116 282 -353 532 -619 654 -118 55 -134 60 -215 82 -159 41 -195 44
-489 42 l-250 -1 -170 174 c-93 95 -199 195 -235 222 -167 127 -328 198 -555
245 -62 12 -324 18 -385 7z m1124 -2629 c112 -37 172 -190 117 -298 -19 -37
-1319 -1348 -1385 -1396 -66 -48 -160 -53 -231 -11 -64 38 -730 713 -749 759
-75 182 103 358 289 286 17 -6 149 -130 295 -276 146 -145 268 -264 272 -264
4 0 269 262 590 583 321 320 595 590 609 599 54 35 124 41 193 18z"/>
</g>
</svg>
